/vscmnt/brussel_pixiu_data/_data_brussel/112/vsc11236/PredSimResults/SUBJ09mtu3D/worker6.mot
version=1
nRows=6
nColumns=50
inDegrees=yes
endheader
                time	         pelvis_tilt	         pelvis_list	     pelvis_rotation	           pelvis_tx	           pelvis_ty	           pelvis_tz	       hip_flexion_r	     hip_adduction_r	      hip_rotation_r	        knee_angle_r	       ankle_angle_r	         mtp_angle_r	       hip_flexion_l	     hip_adduction_l	      hip_rotation_l	        knee_angle_l	       ankle_angle_l	         mtp_angle_l	    lumbar_extension	      lumbar_bending	     lumbar_rotation	 ercspn_r/activation	 intobl_r/activation	 extobl_r/activation	    abd_r/activation	    add_r/activation	hamstrings_r/activation	bifemsh_r/activation	glut_max_r/activation	iliopsoas_r/activation	rect_fem_r/activation	  vasti_r/activation	gastroc_r/activation	 soleus_r/activation	tib_ant_r/activation	 ercspn_l/activation	 intobl_l/activation	 extobl_l/activation	    abd_l/activation	    add_l/activation	hamstrings_l/activation	bifemsh_l/activation	glut_max_l/activation	iliopsoas_l/activation	rect_fem_l/activation	  vasti_l/activation	gastroc_l/activation	 soleus_l/activation	tib_ant_l/activation	
          0.60926708	         -4.44768145	          1.13604838	         -8.36996754	          0.75549117	          0.98789001	          0.00355129	        -11.44904668	         -2.01310960	         -1.11539718	        -13.08964709	          8.38873260	         32.48837607	         28.88846268	         -1.01009852	         -6.92654119	         -5.44101229	          4.45742239	          0.25080481	        -13.58339520	          1.06680947	          3.11211137	          0.01000000	          0.01062994	          0.02097635	          0.02833160	          0.01594264	          0.06905600	          0.17518145	          0.02212824	          0.01000000	          0.00999999	          0.00999999	          0.15317064	          0.26305523	          0.00999999	          0.00999999	          0.15412600	          0.05280554	          0.06053950	          0.14264895	          0.04599359	          0.16822344	          0.09378108	          0.08093573	          0.02121535	          0.00999999	          0.01741384	          0.01447422	          0.32087055	
          0.62145242	         -4.43707971	          1.17205696	         -8.17164942	          0.77520175	          0.98589654	          0.00345511	        -12.21007247	         -2.16078430	         -1.72542195	        -13.77003967	          7.26645294	         34.17045950	         28.53623128	         -0.78879342	         -6.68656915	         -6.81040433	          4.05313396	          0.21319345	        -13.08131335	          0.63461933	          3.06787313	          0.00999999	          0.00999999	          0.01743541	          0.02354904	          0.01325142	          0.05959354	          0.16070079	          0.01839285	          0.00999999	          0.00999999	          0.00999999	          0.12731447	          0.23549104	          0.00999999	          0.00999999	          0.12810857	          0.04389163	          0.12679856	          0.12813933	          0.05292485	          0.13982626	          0.13245789	          0.06727327	          0.01763406	          0.00999999	          0.01447428	          0.01203088	          0.35983549	
          0.63363776	         -4.41824923	          1.21563860	         -7.93256379	          0.79501434	          0.98424767	          0.00331162	        -12.74860661	         -2.31441194	         -2.36436095	        -14.85109355	          5.98940244	         35.83085282	         28.16400921	         -0.56166571	         -6.45659473	         -8.14222351	          3.47724167	          0.20846611	        -12.57312345	          0.18281754	          3.00442687	          0.01587032	          0.00999999	          0.01449220	          0.01957382	          0.01101450	          0.05122429	          0.13357349	          0.01528802	          0.01000000	          0.00999999	          0.00999999	          0.10582299	          0.19573866	          0.00999999	          0.00999999	          0.10648303	          0.03648244	          0.17347985	          0.12659966	          0.05221696	          0.11622271	          0.17337497	          0.05591712	          0.01465732	          0.00999999	          0.01203093	          0.00999999	          0.40143384	
          0.64582310	         -4.39372161	          1.25980751	         -7.65488271	          0.81459534	          0.98317754	          0.00311592	        -12.96342973	         -2.47267208	         -3.02112508	        -16.46454081	          4.55277280	         37.35537808	         27.91185436	         -0.33822265	         -6.23761916	         -9.66720246	          2.91591004	          0.17249686	        -12.09752577	         -0.28217565	          2.92041348	          0.05100601	          0.00999999	          0.01204583	          0.01626963	          0.04818572	          0.04257731	          0.11102544	          0.01270731	          0.05207631	          0.00999999	          0.00999999	          0.08795940	          0.16269674	          0.00999999	          0.01000000	          0.08850802	          0.03032398	          0.21311253	          0.16455643	          0.04672168	          0.09660358	          0.20078202	          0.04647796	          0.01218308	          0.03600286	          0.01000003	          0.00999999	          0.42078588	
          0.65800844	         -4.36479210	          1.29251229	         -7.33979826	          0.83376637	          0.98283574	          0.00288224	        -12.77225929	         -2.63167249	         -3.69335777	        -18.72863837	          2.97817533	         38.53644931	         27.76661377	         -0.13139119	         -6.03268554	        -11.40602297	          2.67727448	          0.13389330	        -11.67383644	         -0.74714265	          2.81545937	          0.07491854	          0.00999999	          0.01001242	          0.01352322	          0.09672921	          0.03539004	          0.09228365	          0.01056223	          0.05800960	          0.00999999	          0.00999999	          0.07311130	          0.13523250	          0.00999999	          0.01000000	          0.07356731	          0.02520510	          0.23837556	          0.18529781	          0.04511731	          0.08029629	          0.21489548	          0.03863218	          0.01012651	          0.08934685	          0.00999999	          0.00999999	          0.41866554	
          0.67019378	         -4.33381293	          1.29968043	         -6.98547518	          0.85243646	          0.98333718	          0.00264033	        -12.12284484	         -2.78947485	         -4.39605661	        -21.72013080	          1.35402813	         38.95885714	         27.59842738	          0.05711667	         -5.82458076	        -13.10589867	          2.71706318	          0.10178235	        -11.30982008	         -1.19745445	          2.68637384	          0.07276471	          0.00999999	          0.00999999	          0.01124041	          0.13192332	          0.02941599	          0.07670559	          0.00999999	          0.04821721	          0.00999999	          0.00999999	          0.06076965	          0.11240440	          0.00999999	          0.01000002	          0.06114868	          0.02095032	          0.24514773	          0.19987813	          0.04796423	          0.06674177	          0.20525864	          0.03211083	          0.01000002	          0.12119652	          0.01000001	          0.01000002	          0.39545429	
